<svg xmlns="http://www.w3.org/2000/svg" width="900" height="585" viewBox="0 0 900 585">
<rect width="100%" height="100%" fill="white"/>
<text x="450.0" y="33" text-anchor="middle" font-family="Arial" font-size="23">Steady TEC temperature vs signed PWM</text>
<line x1="95.0" y1="65" x2="95.0" y2="445" stroke="#eee"/>
<text x="95.0" y="470" text-anchor="middle" font-family="Arial" font-size="13">-96</text>
<line x1="247.0" y1="65" x2="247.0" y2="445" stroke="#eee"/>
<text x="247.0" y="470" text-anchor="middle" font-family="Arial" font-size="13">-68</text>
<line x1="399.0" y1="65" x2="399.0" y2="445" stroke="#eee"/>
<text x="399.0" y="470" text-anchor="middle" font-family="Arial" font-size="13">-40</text>
<line x1="551.0" y1="65" x2="551.0" y2="445" stroke="#eee"/>
<text x="551.0" y="470" text-anchor="middle" font-family="Arial" font-size="13">-11</text>
<line x1="703.0" y1="65" x2="703.0" y2="445" stroke="#eee"/>
<text x="703.0" y="470" text-anchor="middle" font-family="Arial" font-size="13">17</text>
<line x1="855.0" y1="65" x2="855.0" y2="445" stroke="#eee"/>
<text x="855.0" y="470" text-anchor="middle" font-family="Arial" font-size="13">45</text>
<line x1="95" y1="445.0" x2="855" y2="445.0" stroke="#eee"/>
<text x="84" y="449.0" text-anchor="end" font-family="Arial" font-size="13">9.0</text>
<line x1="95" y1="369.0" x2="855" y2="369.0" stroke="#eee"/>
<text x="84" y="373.0" text-anchor="end" font-family="Arial" font-size="13">16.5</text>
<line x1="95" y1="293.0" x2="855" y2="293.0" stroke="#eee"/>
<text x="84" y="297.0" text-anchor="end" font-family="Arial" font-size="13">23.9</text>
<line x1="95" y1="217.0" x2="855" y2="217.0" stroke="#eee"/>
<text x="84" y="221.0" text-anchor="end" font-family="Arial" font-size="13">31.4</text>
<line x1="95" y1="141.0" x2="855" y2="141.0" stroke="#eee"/>
<text x="84" y="145.0" text-anchor="end" font-family="Arial" font-size="13">38.9</text>
<line x1="95" y1="65.0" x2="855" y2="65.0" stroke="#eee"/>
<text x="84" y="69.0" text-anchor="end" font-family="Arial" font-size="13">46.4</text>
<line x1="612.4" y1="65" x2="612.4" y2="445" stroke="#555" stroke-width="1.6"/>
<rect x="95" y="65" width="760" height="380" fill="none" stroke="#333"/>
<polyline points="612.4,300.2 855.0,73.5" fill="none" stroke="#c62828" stroke-width="3" stroke-dasharray="9 5"/>
<polyline points="95.0,434.1 612.4,296.1" fill="none" stroke="#1565c0" stroke-width="3" stroke-dasharray="9 5"/>
<circle cx="612.4" cy="298.1" r="4.5" fill="#c62828"/>
<circle cx="671.7" cy="248.6" r="4.5" fill="#c62828"/>
<circle cx="736.4" cy="184.4" r="4.5" fill="#c62828"/>
<circle cx="795.7" cy="125.5" r="4.5" fill="#c62828"/>
<circle cx="855.0" cy="75.2" r="6" fill="white" stroke="#c62828" stroke-width="2.5"/>
<circle cx="95.0" cy="434.8" r="6" fill="white" stroke="#1565c0" stroke-width="2.5"/>
<circle cx="224.4" cy="400.2" r="4.5" fill="#1565c0"/>
<circle cx="353.7" cy="363.7" r="4.5" fill="#1565c0"/>
<circle cx="483.1" cy="328.6" r="4.5" fill="#1565c0"/>
<circle cx="612.4" cy="298.1" r="6" fill="none" stroke="#1565c0" stroke-width="2.5"/>
<text x="450.0" y="485" text-anchor="middle" font-family="Arial" font-size="17">Signed PWM (count; COOL &lt; 0, HEAT &gt; 0)</text>
<text transform="translate(26 255.0) rotate(-90)" text-anchor="middle" font-family="Arial" font-size="17">Steady temperature (°C)</text>
<text x="450.0" y="513" text-anchor="middle" font-family="Arial" font-size="14">HEAT   |   COOL   |   dashed = linear fit</text>
<text x="450.0" y="540" text-anchor="middle" font-family="Arial" font-size="12">Fits: HEAT 0–45, COOL -96 to 0; steady: Provisional 20-s means; revised 3tau + 1-min steady test pending. Open</text>
<text x="450.0" y="560" text-anchor="middle" font-family="Arial" font-size="12">endpoints H4/C4 are instructor-approved 10–45 °C range exceptions; H0/C0 overlap at 0 PWM.</text>
</svg>
