<?xml version="1.0" encoding="utf-8" standalone="no"?>
<!DOCTYPE svg PUBLIC "-//W3C//DTD SVG 1.1//EN"
  "http://www.w3.org/Graphics/SVG/1.1/DTD/svg11.dtd">
<svg xmlns:xlink="http://www.w3.org/1999/xlink" width="622.040937pt" height="450.859562pt" viewBox="0 0 622.040937 450.859562" xmlns="http://www.w3.org/2000/svg" version="1.1">
 <metadata>
  <rdf:RDF xmlns:dc="http://purl.org/dc/elements/1.1/" xmlns:cc="http://creativecommons.org/ns#" xmlns:rdf="http://www.w3.org/1999/02/22-rdf-syntax-ns#">
   <cc:Work>
    <dc:type rdf:resource="http://purl.org/dc/dcmitype/StillImage"/>
    <dc:date>2026-10-07T09:43:31.408550</dc:date>
    <dc:format>image/svg+xml</dc:format>
    <dc:creator>
     <cc:Agent>
      <dc:title>Matplotlib v3.9.4, https://matplotlib.org/</dc:title>
     </cc:Agent>
    </dc:creator>
   </cc:Work>
  </rdf:RDF>
 </metadata>
 <defs>
  <style type="text/css">*{stroke-linejoin: round; stroke-linecap: butt}</style>
 </defs>
 <g id="figure_1">
  <g id="patch_1">
   <path d="M 0 450.859562 
L 622.040937 450.859562 
L 622.040937 0 
L 0 0 
z
" style="fill: #ffffff"/>
  </g>
  <g id="axes_1">
   <g id="patch_2">
    <path d="M 56.840938 199.687687 
L 614.840937 199.687687 
L 614.840937 23.287688 
L 56.840938 23.287688 
z
" style="fill: #ffffff"/>
   </g>
   <g id="matplotlib.axis_1">
    <g id="xtick_1">
     <g id="line2d_1">
      <path d="M 82.168338 199.687687 
L 82.168338 23.287688 
" clip-path="url(#p3f206cf986)" style="fill: none; stroke: #b0b0b0; stroke-opacity: 0.18; stroke-width: 0.8; stroke-linecap: square"/>
     </g>
     <g id="line2d_2">
      <defs>
       <path id="m343adb76a4" d="M 0 0 
L 0 3.5 
" style="stroke: #000000; stroke-width: 0.8"/>
      </defs>
      <g>
       <use xlink:href="#m343adb76a4" x="82.168338" y="199.687687" style="stroke: #000000; stroke-width: 0.8"/>
      </g>
     </g>
    </g>
    <g id="xtick_2">
     <g id="line2d_3">
      <path d="M 154.641047 199.687687 
L 154.641047 23.287688 
" clip-path="url(#p3f206cf986)" style="fill: none; stroke: #b0b0b0; stroke-opacity: 0.18; stroke-width: 0.8; stroke-linecap: square"/>
     </g>
     <g id="line2d_4">
      <g>
       <use xlink:href="#m343adb76a4" x="154.641047" y="199.687687" style="stroke: #000000; stroke-width: 0.8"/>
      </g>
     </g>
    </g>
    <g id="xtick_3">
     <g id="line2d_5">
      <path d="M 227.113756 199.687687 
L 227.113756 23.287688 
" clip-path="url(#p3f206cf986)" style="fill: none; stroke: #b0b0b0; stroke-opacity: 0.18; stroke-width: 0.8; stroke-linecap: square"/>
     </g>
     <g id="line2d_6">
      <g>
       <use xlink:href="#m343adb76a4" x="227.113756" y="199.687687" style="stroke: #000000; stroke-width: 0.8"/>
      </g>
     </g>
    </g>
    <g id="xtick_4">
     <g id="line2d_7">
      <path d="M 299.586465 199.687687 
L 299.586465 23.287688 
" clip-path="url(#p3f206cf986)" style="fill: none; stroke: #b0b0b0; stroke-opacity: 0.18; stroke-width: 0.8; stroke-linecap: square"/>
     </g>
     <g id="line2d_8">
      <g>
       <use xlink:href="#m343adb76a4" x="299.586465" y="199.687687" style="stroke: #000000; stroke-width: 0.8"/>
      </g>
     </g>
    </g>
    <g id="xtick_5">
     <g id="line2d_9">
      <path d="M 372.059174 199.687687 
L 372.059174 23.287688 
" clip-path="url(#p3f206cf986)" style="fill: none; stroke: #b0b0b0; stroke-opacity: 0.18; stroke-width: 0.8; stroke-linecap: square"/>
     </g>
     <g id="line2d_10">
      <g>
       <use xlink:href="#m343adb76a4" x="372.059174" y="199.687687" style="stroke: #000000; stroke-width: 0.8"/>
      </g>
     </g>
    </g>
    <g id="xtick_6">
     <g id="line2d_11">
      <path d="M 444.531883 199.687687 
L 444.531883 23.287688 
" clip-path="url(#p3f206cf986)" style="fill: none; stroke: #b0b0b0; stroke-opacity: 0.18; stroke-width: 0.8; stroke-linecap: square"/>
     </g>
     <g id="line2d_12">
      <g>
       <use xlink:href="#m343adb76a4" x="444.531883" y="199.687687" style="stroke: #000000; stroke-width: 0.8"/>
      </g>
     </g>
    </g>
    <g id="xtick_7">
     <g id="line2d_13">
      <path d="M 517.004592 199.687687 
L 517.004592 23.287688 
" clip-path="url(#p3f206cf986)" style="fill: none; stroke: #b0b0b0; stroke-opacity: 0.18; stroke-width: 0.8; stroke-linecap: square"/>
     </g>
     <g id="line2d_14">
      <g>
       <use xlink:href="#m343adb76a4" x="517.004592" y="199.687687" style="stroke: #000000; stroke-width: 0.8"/>
      </g>
     </g>
    </g>
    <g id="xtick_8">
     <g id="line2d_15">
      <path d="M 589.477301 199.687687 
L 589.477301 23.287688 
" clip-path="url(#p3f206cf986)" style="fill: none; stroke: #b0b0b0; stroke-opacity: 0.18; stroke-width: 0.8; stroke-linecap: square"/>
     </g>
     <g id="line2d_16">
      <g>
       <use xlink:href="#m343adb76a4" x="589.477301" y="199.687687" style="stroke: #000000; stroke-width: 0.8"/>
      </g>
     </g>
    </g>
   </g>
   <g id="matplotlib.axis_2">
    <g id="ytick_1">
     <g id="line2d_17">
      <path d="M 56.840938 174.353734 
L 614.840937 174.353734 
" clip-path="url(#p3f206cf986)" style="fill: none; stroke: #b0b0b0; stroke-opacity: 0.18; stroke-width: 0.8; stroke-linecap: square"/>
     </g>
     <g id="line2d_18">
      <defs>
       <path id="m1fdeaf9aad" d="M 0 0 
L -3.5 0 
" style="stroke: #000000; stroke-width: 0.8"/>
      </defs>
      <g>
       <use xlink:href="#m1fdeaf9aad" x="56.840938" y="174.353734" style="stroke: #000000; stroke-width: 0.8"/>
      </g>
     </g>
     <g id="text_1">
      <!-- 24 -->
      <g transform="translate(35.843438 178.532875) scale(0.11 -0.11)">
       <defs>
        <path id="DejaVuSans-32" d="M 1228 531 
L 3431 531 
L 3431 0 
L 469 0 
L 469 531 
Q 828 903 1448 1529 
Q 2069 2156 2228 2338 
Q 2531 2678 2651 2914 
Q 2772 3150 2772 3378 
Q 2772 3750 2511 3984 
Q 2250 4219 1831 4219 
Q 1534 4219 1204 4116 
Q 875 4013 500 3803 
L 500 4441 
Q 881 4594 1212 4672 
Q 1544 4750 1819 4750 
Q 2544 4750 2975 4387 
Q 3406 4025 3406 3419 
Q 3406 3131 3298 2873 
Q 3191 2616 2906 2266 
Q 2828 2175 2409 1742 
Q 1991 1309 1228 531 
z
" transform="scale(0.015625)"/>
        <path id="DejaVuSans-34" d="M 2419 4116 
L 825 1625 
L 2419 1625 
L 2419 4116 
z
M 2253 4666 
L 3047 4666 
L 3047 1625 
L 3713 1625 
L 3713 1100 
L 3047 1100 
L 3047 0 
L 2419 0 
L 2419 1100 
L 313 1100 
L 313 1709 
L 2253 4666 
z
" transform="scale(0.015625)"/>
       </defs>
       <use xlink:href="#DejaVuSans-32"/>
       <use xlink:href="#DejaVuSans-34" x="63.623047"/>
      </g>
     </g>
    </g>
    <g id="ytick_2">
     <g id="line2d_19">
      <path d="M 56.840938 131.137874 
L 614.840937 131.137874 
" clip-path="url(#p3f206cf986)" style="fill: none; stroke: #b0b0b0; stroke-opacity: 0.18; stroke-width: 0.8; stroke-linecap: square"/>
     </g>
     <g id="line2d_20">
      <g>
       <use xlink:href="#m1fdeaf9aad" x="56.840938" y="131.137874" style="stroke: #000000; stroke-width: 0.8"/>
      </g>
     </g>
     <g id="text_2">
      <!-- 26 -->
      <g transform="translate(35.843438 135.317014) scale(0.11 -0.11)">
       <defs>
        <path id="DejaVuSans-36" d="M 2113 2584 
Q 1688 2584 1439 2293 
Q 1191 2003 1191 1497 
Q 1191 994 1439 701 
Q 1688 409 2113 409 
Q 2538 409 2786 701 
Q 3034 994 3034 1497 
Q 3034 2003 2786 2293 
Q 2538 2584 2113 2584 
z
M 3366 4563 
L 3366 3988 
Q 3128 4100 2886 4159 
Q 2644 4219 2406 4219 
Q 1781 4219 1451 3797 
Q 1122 3375 1075 2522 
Q 1259 2794 1537 2939 
Q 1816 3084 2150 3084 
Q 2853 3084 3261 2657 
Q 3669 2231 3669 1497 
Q 3669 778 3244 343 
Q 2819 -91 2113 -91 
Q 1303 -91 875 529 
Q 447 1150 447 2328 
Q 447 3434 972 4092 
Q 1497 4750 2381 4750 
Q 2619 4750 2861 4703 
Q 3103 4656 3366 4563 
z
" transform="scale(0.015625)"/>
       </defs>
       <use xlink:href="#DejaVuSans-32"/>
       <use xlink:href="#DejaVuSans-36" x="63.623047"/>
      </g>
     </g>
    </g>
    <g id="ytick_3">
     <g id="line2d_21">
      <path d="M 56.840938 87.922014 
L 614.840937 87.922014 
" clip-path="url(#p3f206cf986)" style="fill: none; stroke: #b0b0b0; stroke-opacity: 0.18; stroke-width: 0.8; stroke-linecap: square"/>
     </g>
     <g id="line2d_22">
      <g>
       <use xlink:href="#m1fdeaf9aad" x="56.840938" y="87.922014" style="stroke: #000000; stroke-width: 0.8"/>
      </g>
     </g>
     <g id="text_3">
      <!-- 28 -->
      <g transform="translate(35.843438 92.101154) scale(0.11 -0.11)">
       <defs>
        <path id="DejaVuSans-38" d="M 2034 2216 
Q 1584 2216 1326 1975 
Q 1069 1734 1069 1313 
Q 1069 891 1326 650 
Q 1584 409 2034 409 
Q 2484 409 2743 651 
Q 3003 894 3003 1313 
Q 3003 1734 2745 1975 
Q 2488 2216 2034 2216 
z
M 1403 2484 
Q 997 2584 770 2862 
Q 544 3141 544 3541 
Q 544 4100 942 4425 
Q 1341 4750 2034 4750 
Q 2731 4750 3128 4425 
Q 3525 4100 3525 3541 
Q 3525 3141 3298 2862 
Q 3072 2584 2669 2484 
Q 3125 2378 3379 2068 
Q 3634 1759 3634 1313 
Q 3634 634 3220 271 
Q 2806 -91 2034 -91 
Q 1263 -91 848 271 
Q 434 634 434 1313 
Q 434 1759 690 2068 
Q 947 2378 1403 2484 
z
M 1172 3481 
Q 1172 3119 1398 2916 
Q 1625 2713 2034 2713 
Q 2441 2713 2670 2916 
Q 2900 3119 2900 3481 
Q 2900 3844 2670 4047 
Q 2441 4250 2034 4250 
Q 1625 4250 1398 4047 
Q 1172 3844 1172 3481 
z
" transform="scale(0.015625)"/>
       </defs>
       <use xlink:href="#DejaVuSans-32"/>
       <use xlink:href="#DejaVuSans-38" x="63.623047"/>
      </g>
     </g>
    </g>
    <g id="ytick_4">
     <g id="line2d_23">
      <path d="M 56.840938 44.706153 
L 614.840937 44.706153 
" clip-path="url(#p3f206cf986)" style="fill: none; stroke: #b0b0b0; stroke-opacity: 0.18; stroke-width: 0.8; stroke-linecap: square"/>
     </g>
     <g id="line2d_24">
      <g>
       <use xlink:href="#m1fdeaf9aad" x="56.840938" y="44.706153" style="stroke: #000000; stroke-width: 0.8"/>
      </g>
     </g>
     <g id="text_4">
      <!-- 30 -->
      <g transform="translate(35.843438 48.885294) scale(0.11 -0.11)">
       <defs>
        <path id="DejaVuSans-33" d="M 2597 2516 
Q 3050 2419 3304 2112 
Q 3559 1806 3559 1356 
Q 3559 666 3084 287 
Q 2609 -91 1734 -91 
Q 1441 -91 1130 -33 
Q 819 25 488 141 
L 488 750 
Q 750 597 1062 519 
Q 1375 441 1716 441 
Q 2309 441 2620 675 
Q 2931 909 2931 1356 
Q 2931 1769 2642 2001 
Q 2353 2234 1838 2234 
L 1294 2234 
L 1294 2753 
L 1863 2753 
Q 2328 2753 2575 2939 
Q 2822 3125 2822 3475 
Q 2822 3834 2567 4026 
Q 2313 4219 1838 4219 
Q 1578 4219 1281 4162 
Q 984 4106 628 3988 
L 628 4550 
Q 988 4650 1302 4700 
Q 1616 4750 1894 4750 
Q 2613 4750 3031 4423 
Q 3450 4097 3450 3541 
Q 3450 3153 3228 2886 
Q 3006 2619 2597 2516 
z
" transform="scale(0.015625)"/>
        <path id="DejaVuSans-30" d="M 2034 4250 
Q 1547 4250 1301 3770 
Q 1056 3291 1056 2328 
Q 1056 1369 1301 889 
Q 1547 409 2034 409 
Q 2525 409 2770 889 
Q 3016 1369 3016 2328 
Q 3016 3291 2770 3770 
Q 2525 4250 2034 4250 
z
M 2034 4750 
Q 2819 4750 3233 4129 
Q 3647 3509 3647 2328 
Q 3647 1150 3233 529 
Q 2819 -91 2034 -91 
Q 1250 -91 836 529 
Q 422 1150 422 2328 
Q 422 3509 836 4129 
Q 1250 4750 2034 4750 
z
" transform="scale(0.015625)"/>
       </defs>
       <use xlink:href="#DejaVuSans-33"/>
       <use xlink:href="#DejaVuSans-30" x="63.623047"/>
      </g>
     </g>
    </g>
    <g id="text_5">
     <!-- Temperature (C) -->
     <g transform="translate(29.555781 156.204406) rotate(-90) scale(0.11 -0.11)">
      <defs>
       <path id="DejaVuSans-54" d="M -19 4666 
L 3928 4666 
L 3928 4134 
L 2272 4134 
L 2272 0 
L 1638 0 
L 1638 4134 
L -19 4134 
L -19 4666 
z
" transform="scale(0.015625)"/>
       <path id="DejaVuSans-65" d="M 3597 1894 
L 3597 1613 
L 953 1613 
Q 991 1019 1311 708 
Q 1631 397 2203 397 
Q 2534 397 2845 478 
Q 3156 559 3463 722 
L 3463 178 
Q 3153 47 2828 -22 
Q 2503 -91 2169 -91 
Q 1331 -91 842 396 
Q 353 884 353 1716 
Q 353 2575 817 3079 
Q 1281 3584 2069 3584 
Q 2775 3584 3186 3129 
Q 3597 2675 3597 1894 
z
M 3022 2063 
Q 3016 2534 2758 2815 
Q 2500 3097 2075 3097 
Q 1594 3097 1305 2825 
Q 1016 2553 972 2059 
L 3022 2063 
z
" transform="scale(0.015625)"/>
       <path id="DejaVuSans-6d" d="M 3328 2828 
Q 3544 3216 3844 3400 
Q 4144 3584 4550 3584 
Q 5097 3584 5394 3201 
Q 5691 2819 5691 2113 
L 5691 0 
L 5113 0 
L 5113 2094 
Q 5113 2597 4934 2840 
Q 4756 3084 4391 3084 
Q 3944 3084 3684 2787 
Q 3425 2491 3425 1978 
L 3425 0 
L 2847 0 
L 2847 2094 
Q 2847 2600 2669 2842 
Q 2491 3084 2119 3084 
Q 1678 3084 1418 2786 
Q 1159 2488 1159 1978 
L 1159 0 
L 581 0 
L 581 3500 
L 1159 3500 
L 1159 2956 
Q 1356 3278 1631 3431 
Q 1906 3584 2284 3584 
Q 2666 3584 2933 3390 
Q 3200 3197 3328 2828 
z
" transform="scale(0.015625)"/>
       <path id="DejaVuSans-70" d="M 1159 525 
L 1159 -1331 
L 581 -1331 
L 581 3500 
L 1159 3500 
L 1159 2969 
Q 1341 3281 1617 3432 
Q 1894 3584 2278 3584 
Q 2916 3584 3314 3078 
Q 3713 2572 3713 1747 
Q 3713 922 3314 415 
Q 2916 -91 2278 -91 
Q 1894 -91 1617 61 
Q 1341 213 1159 525 
z
M 3116 1747 
Q 3116 2381 2855 2742 
Q 2594 3103 2138 3103 
Q 1681 3103 1420 2742 
Q 1159 2381 1159 1747 
Q 1159 1113 1420 752 
Q 1681 391 2138 391 
Q 2594 391 2855 752 
Q 3116 1113 3116 1747 
z
" transform="scale(0.015625)"/>
       <path id="DejaVuSans-72" d="M 2631 2963 
Q 2534 3019 2420 3045 
Q 2306 3072 2169 3072 
Q 1681 3072 1420 2755 
Q 1159 2438 1159 1844 
L 1159 0 
L 581 0 
L 581 3500 
L 1159 3500 
L 1159 2956 
Q 1341 3275 1631 3429 
Q 1922 3584 2338 3584 
Q 2397 3584 2469 3576 
Q 2541 3569 2628 3553 
L 2631 2963 
z
" transform="scale(0.015625)"/>
       <path id="DejaVuSans-61" d="M 2194 1759 
Q 1497 1759 1228 1600 
Q 959 1441 959 1056 
Q 959 750 1161 570 
Q 1363 391 1709 391 
Q 2188 391 2477 730 
Q 2766 1069 2766 1631 
L 2766 1759 
L 2194 1759 
z
M 3341 1997 
L 3341 0 
L 2766 0 
L 2766 531 
Q 2569 213 2275 61 
Q 1981 -91 1556 -91 
Q 1019 -91 701 211 
Q 384 513 384 1019 
Q 384 1609 779 1909 
Q 1175 2209 1959 2209 
L 2766 2209 
L 2766 2266 
Q 2766 2663 2505 2880 
Q 2244 3097 1772 3097 
Q 1472 3097 1187 3025 
Q 903 2953 641 2809 
L 641 3341 
Q 956 3463 1253 3523 
Q 1550 3584 1831 3584 
Q 2591 3584 2966 3190 
Q 3341 2797 3341 1997 
z
" transform="scale(0.015625)"/>
       <path id="DejaVuSans-74" d="M 1172 4494 
L 1172 3500 
L 2356 3500 
L 2356 3053 
L 1172 3053 
L 1172 1153 
Q 1172 725 1289 603 
Q 1406 481 1766 481 
L 2356 481 
L 2356 0 
L 1766 0 
Q 1100 0 847 248 
Q 594 497 594 1153 
L 594 3053 
L 172 3053 
L 172 3500 
L 594 3500 
L 594 4494 
L 1172 4494 
z
" transform="scale(0.015625)"/>
       <path id="DejaVuSans-75" d="M 544 1381 
L 544 3500 
L 1119 3500 
L 1119 1403 
Q 1119 906 1312 657 
Q 1506 409 1894 409 
Q 2359 409 2629 706 
Q 2900 1003 2900 1516 
L 2900 3500 
L 3475 3500 
L 3475 0 
L 2900 0 
L 2900 538 
Q 2691 219 2414 64 
Q 2138 -91 1772 -91 
Q 1169 -91 856 284 
Q 544 659 544 1381 
z
M 1991 3584 
L 1991 3584 
z
" transform="scale(0.015625)"/>
       <path id="DejaVuSans-20" transform="scale(0.015625)"/>
       <path id="DejaVuSans-28" d="M 1984 4856 
Q 1566 4138 1362 3434 
Q 1159 2731 1159 2009 
Q 1159 1288 1364 580 
Q 1569 -128 1984 -844 
L 1484 -844 
Q 1016 -109 783 600 
Q 550 1309 550 2009 
Q 550 2706 781 3412 
Q 1013 4119 1484 4856 
L 1984 4856 
z
" transform="scale(0.015625)"/>
       <path id="DejaVuSans-43" d="M 4122 4306 
L 4122 3641 
Q 3803 3938 3442 4084 
Q 3081 4231 2675 4231 
Q 1875 4231 1450 3742 
Q 1025 3253 1025 2328 
Q 1025 1406 1450 917 
Q 1875 428 2675 428 
Q 3081 428 3442 575 
Q 3803 722 4122 1019 
L 4122 359 
Q 3791 134 3420 21 
Q 3050 -91 2638 -91 
Q 1578 -91 968 557 
Q 359 1206 359 2328 
Q 359 3453 968 4101 
Q 1578 4750 2638 4750 
Q 3056 4750 3426 4639 
Q 3797 4528 4122 4306 
z
" transform="scale(0.015625)"/>
       <path id="DejaVuSans-29" d="M 513 4856 
L 1013 4856 
Q 1481 4119 1714 3412 
Q 1947 2706 1947 2009 
Q 1947 1309 1714 600 
Q 1481 -109 1013 -844 
L 513 -844 
Q 928 -128 1133 580 
Q 1338 1288 1338 2009 
Q 1338 2731 1133 3434 
Q 928 4138 513 4856 
z
" transform="scale(0.015625)"/>
      </defs>
      <use xlink:href="#DejaVuSans-54"/>
      <use xlink:href="#DejaVuSans-65" x="44.083984"/>
      <use xlink:href="#DejaVuSans-6d" x="105.607422"/>
      <use xlink:href="#DejaVuSans-70" x="203.019531"/>
      <use xlink:href="#DejaVuSans-65" x="266.496094"/>
      <use xlink:href="#DejaVuSans-72" x="328.019531"/>
      <use xlink:href="#DejaVuSans-61" x="369.132812"/>
      <use xlink:href="#DejaVuSans-74" x="430.412109"/>
      <use xlink:href="#DejaVuSans-75" x="469.621094"/>
      <use xlink:href="#DejaVuSans-72" x="533"/>
      <use xlink:href="#DejaVuSans-65" x="571.863281"/>
      <use xlink:href="#DejaVuSans-20" x="633.386719"/>
      <use xlink:href="#DejaVuSans-28" x="665.173828"/>
      <use xlink:href="#DejaVuSans-43" x="704.1875"/>
      <use xlink:href="#DejaVuSans-29" x="774.011719"/>
     </g>
    </g>
   </g>
   <g id="line2d_25">
    <path d="M 82.204574 191.669506 
L 84.668646 177.401944 
L 87.132718 164.403768 
L 89.633027 152.395998 
L 92.133335 141.47154 
L 94.633643 131.53266 
L 97.133952 122.490442 
L 99.63426 114.263991 
L 102.170805 106.676361 
L 104.70735 99.78272 
L 107.243895 93.519596 
L 109.816676 87.751918 
L 112.389457 82.518946 
L 114.998475 77.707483 
L 117.643729 73.290486 
L 120.325219 69.241927 
L 123.042945 65.53683 
L 125.833145 62.109065 
L 128.65958 58.986587 
L 131.558489 56.112552 
L 134.52987 53.47608 
L 137.60996 51.03853 
L 140.798759 48.796929 
L 144.132504 46.725223 
L 147.611194 44.824597 
L 151.271066 43.077317 
L 155.184592 41.458024 
L 159.351773 39.977899 
L 163.808844 38.632807 
L 168.628279 37.412098 
L 173.918787 36.304917 
L 179.75284 35.315228 
L 186.275384 34.438833 
L 193.6676 33.674805 
L 202.21938 33.020252 
L 212.365559 32.473962 
L 224.830865 32.034924 
L 227.113756 31.974626 
L 229.36041 45.162817 
L 231.172227 54.606433 
L 232.8391 62.120517 
L 234.433499 68.301437 
L 235.955426 73.330015 
L 237.40488 77.371119 
L 238.781862 80.573226 
L 240.086371 83.068654 
L 241.354643 85.023949 
L 242.550443 86.469447 
L 243.710006 87.526349 
L 244.797097 88.229317 
L 245.884187 88.672685 
L 246.971278 88.874785 
L 248.058369 88.85364 
L 249.217932 88.604903 
L 250.449968 88.10767 
L 251.790713 87.321699 
L 253.276404 86.188144 
L 254.979512 84.59787 
L 256.936275 82.456051 
L 259.327875 79.489836 
L 262.480438 75.196735 
L 270.488672 64.119777 
L 273.242635 60.877937 
L 276.141543 57.810649 
L 279.076688 55.028595 
L 282.120542 52.451247 
L 285.200632 50.131593 
L 288.135777 48.191922 
L 290.998449 46.563701 
L 293.824884 45.210566 
L 296.65132 44.101971 
L 299.550228 43.204305 
L 302.557846 42.508287 
L 305.710409 42.008536 
L 309.116626 41.696983 
L 312.885207 41.580711 
L 317.233569 41.676785 
L 322.632786 42.030564 
L 331.184566 42.846465 
L 343.975999 44.034997 
L 352.310361 44.570395 
L 360.789668 44.88813 
L 370.573483 45.023712 
L 384.307062 44.970118 
L 428.624123 44.67468 
L 524.324336 44.706927 
L 589.477301 44.706113 
L 589.477301 44.706113 
" clip-path="url(#p3f206cf986)" style="fill: none; stroke: #245a81; stroke-width: 1.5; stroke-linecap: square"/>
   </g>
   <g id="line2d_26">
    <path d="M 82.204574 191.669506 
L 84.668646 177.401944 
L 87.132718 164.403768 
L 89.633027 152.395998 
L 92.133335 141.47154 
L 94.633643 131.53266 
L 97.133952 122.490442 
L 99.63426 114.263991 
L 102.170805 106.676361 
L 104.70735 99.78272 
L 107.243895 93.519596 
L 109.816676 87.751918 
L 112.389457 82.518946 
L 114.998475 77.707483 
L 117.643729 73.290486 
L 120.325219 69.241927 
L 123.042945 65.53683 
L 125.833145 62.109065 
L 128.65958 58.986587 
L 131.558489 56.112552 
L 134.52987 53.47608 
L 137.60996 51.03853 
L 140.798759 48.796929 
L 144.132504 46.725223 
L 147.611194 44.824597 
L 151.271066 43.077317 
L 155.184592 41.458024 
L 159.351773 39.977899 
L 163.808844 38.632807 
L 168.628279 37.412098 
L 173.918787 36.304917 
L 179.75284 35.315228 
L 186.275384 34.438833 
L 193.6676 33.674805 
L 202.21938 33.020252 
L 212.365559 32.473962 
L 224.830865 32.034924 
L 240.919807 31.702633 
L 263.531292 31.474596 
L 300.999683 31.34678 
L 398.656658 31.306887 
L 589.477301 31.305869 
L 589.477301 31.305869 
" clip-path="url(#p3f206cf986)" style="fill: none; stroke-dasharray: 5.55,2.4; stroke-dashoffset: 0; stroke: #b45b22; stroke-width: 1.5"/>
   </g>
   <g id="line2d_27">
    <path d="M 56.840938 44.706153 
L 614.840937 44.706153 
" clip-path="url(#p3f206cf986)" style="fill: none; stroke-dasharray: 1.5,2.475; stroke-dashoffset: 0; stroke: #333333; stroke-width: 1.5"/>
   </g>
   <g id="line2d_28">
    <path d="M 227.113756 199.687687 
L 227.113756 23.287688 
" clip-path="url(#p3f206cf986)" style="fill: none; stroke-dasharray: 1.5,2.475; stroke-dashoffset: 0; stroke: #927919; stroke-width: 1.5"/>
   </g>
   <g id="patch_3">
    <path d="M 56.840938 199.687687 
L 56.840938 23.287687 
" style="fill: none; stroke: #000000; stroke-width: 0.8; stroke-linejoin: miter; stroke-linecap: square"/>
   </g>
   <g id="patch_4">
    <path d="M 56.840938 199.687687 
L 614.840937 199.687687 
" style="fill: none; stroke: #000000; stroke-width: 0.8; stroke-linejoin: miter; stroke-linecap: square"/>
   </g>
   <g id="text_6">
    <!-- Windup demonstration | simulation only, PWM limit=15 -->
    <g transform="translate(152.641437 17.287688) scale(0.132 -0.132)">
     <defs>
      <path id="DejaVuSans-57" d="M 213 4666 
L 850 4666 
L 1831 722 
L 2809 4666 
L 3519 4666 
L 4500 722 
L 5478 4666 
L 6119 4666 
L 4947 0 
L 4153 0 
L 3169 4050 
L 2175 0 
L 1381 0 
L 213 4666 
z
" transform="scale(0.015625)"/>
      <path id="DejaVuSans-69" d="M 603 3500 
L 1178 3500 
L 1178 0 
L 603 0 
L 603 3500 
z
M 603 4863 
L 1178 4863 
L 1178 4134 
L 603 4134 
L 603 4863 
z
" transform="scale(0.015625)"/>
      <path id="DejaVuSans-6e" d="M 3513 2113 
L 3513 0 
L 2938 0 
L 2938 2094 
Q 2938 2591 2744 2837 
Q 2550 3084 2163 3084 
Q 1697 3084 1428 2787 
Q 1159 2491 1159 1978 
L 1159 0 
L 581 0 
L 581 3500 
L 1159 3500 
L 1159 2956 
Q 1366 3272 1645 3428 
Q 1925 3584 2291 3584 
Q 2894 3584 3203 3211 
Q 3513 2838 3513 2113 
z
" transform="scale(0.015625)"/>
      <path id="DejaVuSans-64" d="M 2906 2969 
L 2906 4863 
L 3481 4863 
L 3481 0 
L 2906 0 
L 2906 525 
Q 2725 213 2448 61 
Q 2172 -91 1784 -91 
Q 1150 -91 751 415 
Q 353 922 353 1747 
Q 353 2572 751 3078 
Q 1150 3584 1784 3584 
Q 2172 3584 2448 3432 
Q 2725 3281 2906 2969 
z
M 947 1747 
Q 947 1113 1208 752 
Q 1469 391 1925 391 
Q 2381 391 2643 752 
Q 2906 1113 2906 1747 
Q 2906 2381 2643 2742 
Q 2381 3103 1925 3103 
Q 1469 3103 1208 2742 
Q 947 2381 947 1747 
z
" transform="scale(0.015625)"/>
      <path id="DejaVuSans-6f" d="M 1959 3097 
Q 1497 3097 1228 2736 
Q 959 2375 959 1747 
Q 959 1119 1226 758 
Q 1494 397 1959 397 
Q 2419 397 2687 759 
Q 2956 1122 2956 1747 
Q 2956 2369 2687 2733 
Q 2419 3097 1959 3097 
z
M 1959 3584 
Q 2709 3584 3137 3096 
Q 3566 2609 3566 1747 
Q 3566 888 3137 398 
Q 2709 -91 1959 -91 
Q 1206 -91 779 398 
Q 353 888 353 1747 
Q 353 2609 779 3096 
Q 1206 3584 1959 3584 
z
" transform="scale(0.015625)"/>
      <path id="DejaVuSans-73" d="M 2834 3397 
L 2834 2853 
Q 2591 2978 2328 3040 
Q 2066 3103 1784 3103 
Q 1356 3103 1142 2972 
Q 928 2841 928 2578 
Q 928 2378 1081 2264 
Q 1234 2150 1697 2047 
L 1894 2003 
Q 2506 1872 2764 1633 
Q 3022 1394 3022 966 
Q 3022 478 2636 193 
Q 2250 -91 1575 -91 
Q 1294 -91 989 -36 
Q 684 19 347 128 
L 347 722 
Q 666 556 975 473 
Q 1284 391 1588 391 
Q 1994 391 2212 530 
Q 2431 669 2431 922 
Q 2431 1156 2273 1281 
Q 2116 1406 1581 1522 
L 1381 1569 
Q 847 1681 609 1914 
Q 372 2147 372 2553 
Q 372 3047 722 3315 
Q 1072 3584 1716 3584 
Q 2034 3584 2315 3537 
Q 2597 3491 2834 3397 
z
" transform="scale(0.015625)"/>
      <path id="DejaVuSans-7c" d="M 1344 4891 
L 1344 -1509 
L 813 -1509 
L 813 4891 
L 1344 4891 
z
" transform="scale(0.015625)"/>
      <path id="DejaVuSans-6c" d="M 603 4863 
L 1178 4863 
L 1178 0 
L 603 0 
L 603 4863 
z
" transform="scale(0.015625)"/>
      <path id="DejaVuSans-79" d="M 2059 -325 
Q 1816 -950 1584 -1140 
Q 1353 -1331 966 -1331 
L 506 -1331 
L 506 -850 
L 844 -850 
Q 1081 -850 1212 -737 
Q 1344 -625 1503 -206 
L 1606 56 
L 191 3500 
L 800 3500 
L 1894 763 
L 2988 3500 
L 3597 3500 
L 2059 -325 
z
" transform="scale(0.015625)"/>
      <path id="DejaVuSans-2c" d="M 750 794 
L 1409 794 
L 1409 256 
L 897 -744 
L 494 -744 
L 750 256 
L 750 794 
z
" transform="scale(0.015625)"/>
      <path id="DejaVuSans-50" d="M 1259 4147 
L 1259 2394 
L 2053 2394 
Q 2494 2394 2734 2622 
Q 2975 2850 2975 3272 
Q 2975 3691 2734 3919 
Q 2494 4147 2053 4147 
L 1259 4147 
z
M 628 4666 
L 2053 4666 
Q 2838 4666 3239 4311 
Q 3641 3956 3641 3272 
Q 3641 2581 3239 2228 
Q 2838 1875 2053 1875 
L 1259 1875 
L 1259 0 
L 628 0 
L 628 4666 
z
" transform="scale(0.015625)"/>
      <path id="DejaVuSans-4d" d="M 628 4666 
L 1569 4666 
L 2759 1491 
L 3956 4666 
L 4897 4666 
L 4897 0 
L 4281 0 
L 4281 4097 
L 3078 897 
L 2444 897 
L 1241 4097 
L 1241 0 
L 628 0 
L 628 4666 
z
" transform="scale(0.015625)"/>
      <path id="DejaVuSans-3d" d="M 678 2906 
L 4684 2906 
L 4684 2381 
L 678 2381 
L 678 2906 
z
M 678 1631 
L 4684 1631 
L 4684 1100 
L 678 1100 
L 678 1631 
z
" transform="scale(0.015625)"/>
      <path id="DejaVuSans-31" d="M 794 531 
L 1825 531 
L 1825 4091 
L 703 3866 
L 703 4441 
L 1819 4666 
L 2450 4666 
L 2450 531 
L 3481 531 
L 3481 0 
L 794 0 
L 794 531 
z
" transform="scale(0.015625)"/>
      <path id="DejaVuSans-35" d="M 691 4666 
L 3169 4666 
L 3169 4134 
L 1269 4134 
L 1269 2991 
Q 1406 3038 1543 3061 
Q 1681 3084 1819 3084 
Q 2600 3084 3056 2656 
Q 3513 2228 3513 1497 
Q 3513 744 3044 326 
Q 2575 -91 1722 -91 
Q 1428 -91 1123 -41 
Q 819 9 494 109 
L 494 744 
Q 775 591 1075 516 
Q 1375 441 1709 441 
Q 2250 441 2565 725 
Q 2881 1009 2881 1497 
Q 2881 1984 2565 2268 
Q 2250 2553 1709 2553 
Q 1456 2553 1204 2497 
Q 953 2441 691 2322 
L 691 4666 
z
" transform="scale(0.015625)"/>
     </defs>
     <use xlink:href="#DejaVuSans-57"/>
     <use xlink:href="#DejaVuSans-69" x="96.626953"/>
     <use xlink:href="#DejaVuSans-6e" x="124.410156"/>
     <use xlink:href="#DejaVuSans-64" x="187.789062"/>
     <use xlink:href="#DejaVuSans-75" x="251.265625"/>
     <use xlink:href="#DejaVuSans-70" x="314.644531"/>
     <use xlink:href="#DejaVuSans-20" x="378.121094"/>
     <use xlink:href="#DejaVuSans-64" x="409.908203"/>
     <use xlink:href="#DejaVuSans-65" x="473.384766"/>
     <use xlink:href="#DejaVuSans-6d" x="534.908203"/>
     <use xlink:href="#DejaVuSans-6f" x="632.320312"/>
     <use xlink:href="#DejaVuSans-6e" x="693.501953"/>
     <use xlink:href="#DejaVuSans-73" x="756.880859"/>
     <use xlink:href="#DejaVuSans-74" x="808.980469"/>
     <use xlink:href="#DejaVuSans-72" x="848.189453"/>
     <use xlink:href="#DejaVuSans-61" x="889.302734"/>
     <use xlink:href="#DejaVuSans-74" x="950.582031"/>
     <use xlink:href="#DejaVuSans-69" x="989.791016"/>
     <use xlink:href="#DejaVuSans-6f" x="1017.574219"/>
     <use xlink:href="#DejaVuSans-6e" x="1078.755859"/>
     <use xlink:href="#DejaVuSans-20" x="1142.134766"/>
     <use xlink:href="#DejaVuSans-7c" x="1173.921875"/>
     <use xlink:href="#DejaVuSans-20" x="1207.613281"/>
     <use xlink:href="#DejaVuSans-73" x="1239.400391"/>
     <use xlink:href="#DejaVuSans-69" x="1291.5"/>
     <use xlink:href="#DejaVuSans-6d" x="1319.283203"/>
     <use xlink:href="#DejaVuSans-75" x="1416.695312"/>
     <use xlink:href="#DejaVuSans-6c" x="1480.074219"/>
     <use xlink:href="#DejaVuSans-61" x="1507.857422"/>
     <use xlink:href="#DejaVuSans-74" x="1569.136719"/>
     <use xlink:href="#DejaVuSans-69" x="1608.345703"/>
     <use xlink:href="#DejaVuSans-6f" x="1636.128906"/>
     <use xlink:href="#DejaVuSans-6e" x="1697.310547"/>
     <use xlink:href="#DejaVuSans-20" x="1760.689453"/>
     <use xlink:href="#DejaVuSans-6f" x="1792.476562"/>
     <use xlink:href="#DejaVuSans-6e" x="1853.658203"/>
     <use xlink:href="#DejaVuSans-6c" x="1917.037109"/>
     <use xlink:href="#DejaVuSans-79" x="1944.820312"/>
     <use xlink:href="#DejaVuSans-2c" x="2004"/>
     <use xlink:href="#DejaVuSans-20" x="2035.787109"/>
     <use xlink:href="#DejaVuSans-50" x="2067.574219"/>
     <use xlink:href="#DejaVuSans-57" x="2127.876953"/>
     <use xlink:href="#DejaVuSans-4d" x="2226.753906"/>
     <use xlink:href="#DejaVuSans-20" x="2313.033203"/>
     <use xlink:href="#DejaVuSans-6c" x="2344.820312"/>
     <use xlink:href="#DejaVuSans-69" x="2372.603516"/>
     <use xlink:href="#DejaVuSans-6d" x="2400.386719"/>
     <use xlink:href="#DejaVuSans-69" x="2497.798828"/>
     <use xlink:href="#DejaVuSans-74" x="2525.582031"/>
     <use xlink:href="#DejaVuSans-3d" x="2564.791016"/>
     <use xlink:href="#DejaVuSans-31" x="2648.580078"/>
     <use xlink:href="#DejaVuSans-35" x="2712.203125"/>
    </g>
   </g>
   <g id="legend_1">
    <g id="patch_5">
     <path d="M 481.33875 194.187687 
L 607.140937 194.187687 
Q 609.340937 194.187687 609.340937 191.987687 
L 609.340937 160.795813 
Q 609.340937 158.595813 607.140937 158.595813 
L 481.33875 158.595813 
Q 479.13875 158.595813 479.13875 160.795813 
L 479.13875 191.987687 
Q 479.13875 194.187687 481.33875 194.187687 
z
" style="fill: #ffffff; opacity: 0.8; stroke: #cccccc; stroke-linejoin: miter"/>
    </g>
    <g id="line2d_29">
     <path d="M 483.53875 167.504094 
L 494.53875 167.504094 
L 505.53875 167.504094 
" style="fill: none; stroke: #245a81; stroke-width: 1.5; stroke-linecap: square"/>
    </g>
    <g id="text_7">
     <!-- Anti-windup ON -->
     <g transform="translate(514.33875 171.354094) scale(0.11 -0.11)">
      <defs>
       <path id="DejaVuSans-41" d="M 2188 4044 
L 1331 1722 
L 3047 1722 
L 2188 4044 
z
M 1831 4666 
L 2547 4666 
L 4325 0 
L 3669 0 
L 3244 1197 
L 1141 1197 
L 716 0 
L 50 0 
L 1831 4666 
z
" transform="scale(0.015625)"/>
       <path id="DejaVuSans-2d" d="M 313 2009 
L 1997 2009 
L 1997 1497 
L 313 1497 
L 313 2009 
z
" transform="scale(0.015625)"/>
       <path id="DejaVuSans-77" d="M 269 3500 
L 844 3500 
L 1563 769 
L 2278 3500 
L 2956 3500 
L 3675 769 
L 4391 3500 
L 4966 3500 
L 4050 0 
L 3372 0 
L 2619 2869 
L 1863 0 
L 1184 0 
L 269 3500 
z
" transform="scale(0.015625)"/>
       <path id="DejaVuSans-4f" d="M 2522 4238 
Q 1834 4238 1429 3725 
Q 1025 3213 1025 2328 
Q 1025 1447 1429 934 
Q 1834 422 2522 422 
Q 3209 422 3611 934 
Q 4013 1447 4013 2328 
Q 4013 3213 3611 3725 
Q 3209 4238 2522 4238 
z
M 2522 4750 
Q 3503 4750 4090 4092 
Q 4678 3434 4678 2328 
Q 4678 1225 4090 567 
Q 3503 -91 2522 -91 
Q 1538 -91 948 565 
Q 359 1222 359 2328 
Q 359 3434 948 4092 
Q 1538 4750 2522 4750 
z
" transform="scale(0.015625)"/>
       <path id="DejaVuSans-4e" d="M 628 4666 
L 1478 4666 
L 3547 763 
L 3547 4666 
L 4159 4666 
L 4159 0 
L 3309 0 
L 1241 3903 
L 1241 0 
L 628 0 
L 628 4666 
z
" transform="scale(0.015625)"/>
      </defs>
      <use xlink:href="#DejaVuSans-41"/>
      <use xlink:href="#DejaVuSans-6e" x="68.408203"/>
      <use xlink:href="#DejaVuSans-74" x="131.787109"/>
      <use xlink:href="#DejaVuSans-69" x="170.996094"/>
      <use xlink:href="#DejaVuSans-2d" x="198.779297"/>
      <use xlink:href="#DejaVuSans-77" x="234.863281"/>
      <use xlink:href="#DejaVuSans-69" x="316.650391"/>
      <use xlink:href="#DejaVuSans-6e" x="344.433594"/>
      <use xlink:href="#DejaVuSans-64" x="407.8125"/>
      <use xlink:href="#DejaVuSans-75" x="471.289062"/>
      <use xlink:href="#DejaVuSans-70" x="534.667969"/>
      <use xlink:href="#DejaVuSans-20" x="598.144531"/>
      <use xlink:href="#DejaVuSans-4f" x="629.931641"/>
      <use xlink:href="#DejaVuSans-4e" x="708.642578"/>
     </g>
    </g>
    <g id="line2d_30">
     <path d="M 483.53875 183.650031 
L 494.53875 183.650031 
L 505.53875 183.650031 
" style="fill: none; stroke-dasharray: 5.55,2.4; stroke-dashoffset: 0; stroke: #b45b22; stroke-width: 1.5"/>
    </g>
    <g id="text_8">
     <!-- Anti-windup OFF -->
     <g transform="translate(514.33875 187.500031) scale(0.11 -0.11)">
      <defs>
       <path id="DejaVuSans-46" d="M 628 4666 
L 3309 4666 
L 3309 4134 
L 1259 4134 
L 1259 2759 
L 3109 2759 
L 3109 2228 
L 1259 2228 
L 1259 0 
L 628 0 
L 628 4666 
z
" transform="scale(0.015625)"/>
      </defs>
      <use xlink:href="#DejaVuSans-41"/>
      <use xlink:href="#DejaVuSans-6e" x="68.408203"/>
      <use xlink:href="#DejaVuSans-74" x="131.787109"/>
      <use xlink:href="#DejaVuSans-69" x="170.996094"/>
      <use xlink:href="#DejaVuSans-2d" x="198.779297"/>
      <use xlink:href="#DejaVuSans-77" x="234.863281"/>
      <use xlink:href="#DejaVuSans-69" x="316.650391"/>
      <use xlink:href="#DejaVuSans-6e" x="344.433594"/>
      <use xlink:href="#DejaVuSans-64" x="407.8125"/>
      <use xlink:href="#DejaVuSans-75" x="471.289062"/>
      <use xlink:href="#DejaVuSans-70" x="534.667969"/>
      <use xlink:href="#DejaVuSans-20" x="598.144531"/>
      <use xlink:href="#DejaVuSans-4f" x="629.931641"/>
      <use xlink:href="#DejaVuSans-46" x="708.642578"/>
      <use xlink:href="#DejaVuSans-46" x="766.162109"/>
     </g>
    </g>
   </g>
  </g>
  <g id="axes_2">
   <g id="patch_6">
    <path d="M 56.840938 411.367687 
L 614.840937 411.367687 
L 614.840937 234.967687 
L 56.840938 234.967687 
z
" style="fill: #ffffff"/>
   </g>
   <g id="matplotlib.axis_3">
    <g id="xtick_9">
     <g id="line2d_31">
      <path d="M 82.168338 411.367687 
L 82.168338 234.967687 
" clip-path="url(#pa6018c57c0)" style="fill: none; stroke: #b0b0b0; stroke-opacity: 0.18; stroke-width: 0.8; stroke-linecap: square"/>
     </g>
     <g id="line2d_32">
      <g>
       <use xlink:href="#m343adb76a4" x="82.168338" y="411.367687" style="stroke: #000000; stroke-width: 0.8"/>
      </g>
     </g>
     <g id="text_9">
      <!-- 0 -->
      <g transform="translate(78.668963 426.725969) scale(0.11 -0.11)">
       <use xlink:href="#DejaVuSans-30"/>
      </g>
     </g>
    </g>
    <g id="xtick_10">
     <g id="line2d_33">
      <path d="M 154.641047 411.367687 
L 154.641047 234.967687 
" clip-path="url(#pa6018c57c0)" style="fill: none; stroke: #b0b0b0; stroke-opacity: 0.18; stroke-width: 0.8; stroke-linecap: square"/>
     </g>
     <g id="line2d_34">
      <g>
       <use xlink:href="#m343adb76a4" x="154.641047" y="411.367687" style="stroke: #000000; stroke-width: 0.8"/>
      </g>
     </g>
     <g id="text_10">
      <!-- 200 -->
      <g transform="translate(144.142922 426.725969) scale(0.11 -0.11)">
       <use xlink:href="#DejaVuSans-32"/>
       <use xlink:href="#DejaVuSans-30" x="63.623047"/>
       <use xlink:href="#DejaVuSans-30" x="127.246094"/>
      </g>
     </g>
    </g>
    <g id="xtick_11">
     <g id="line2d_35">
      <path d="M 227.113756 411.367687 
L 227.113756 234.967687 
" clip-path="url(#pa6018c57c0)" style="fill: none; stroke: #b0b0b0; stroke-opacity: 0.18; stroke-width: 0.8; stroke-linecap: square"/>
     </g>
     <g id="line2d_36">
      <g>
       <use xlink:href="#m343adb76a4" x="227.113756" y="411.367687" style="stroke: #000000; stroke-width: 0.8"/>
      </g>
     </g>
     <g id="text_11">
      <!-- 400 -->
      <g transform="translate(216.615631 426.725969) scale(0.11 -0.11)">
       <use xlink:href="#DejaVuSans-34"/>
       <use xlink:href="#DejaVuSans-30" x="63.623047"/>
       <use xlink:href="#DejaVuSans-30" x="127.246094"/>
      </g>
     </g>
    </g>
    <g id="xtick_12">
     <g id="line2d_37">
      <path d="M 299.586465 411.367687 
L 299.586465 234.967687 
" clip-path="url(#pa6018c57c0)" style="fill: none; stroke: #b0b0b0; stroke-opacity: 0.18; stroke-width: 0.8; stroke-linecap: square"/>
     </g>
     <g id="line2d_38">
      <g>
       <use xlink:href="#m343adb76a4" x="299.586465" y="411.367687" style="stroke: #000000; stroke-width: 0.8"/>
      </g>
     </g>
     <g id="text_12">
      <!-- 600 -->
      <g transform="translate(289.08834 426.725969) scale(0.11 -0.11)">
       <use xlink:href="#DejaVuSans-36"/>
       <use xlink:href="#DejaVuSans-30" x="63.623047"/>
       <use xlink:href="#DejaVuSans-30" x="127.246094"/>
      </g>
     </g>
    </g>
    <g id="xtick_13">
     <g id="line2d_39">
      <path d="M 372.059174 411.367687 
L 372.059174 234.967687 
" clip-path="url(#pa6018c57c0)" style="fill: none; stroke: #b0b0b0; stroke-opacity: 0.18; stroke-width: 0.8; stroke-linecap: square"/>
     </g>
     <g id="line2d_40">
      <g>
       <use xlink:href="#m343adb76a4" x="372.059174" y="411.367687" style="stroke: #000000; stroke-width: 0.8"/>
      </g>
     </g>
     <g id="text_13">
      <!-- 800 -->
      <g transform="translate(361.561049 426.725969) scale(0.11 -0.11)">
       <use xlink:href="#DejaVuSans-38"/>
       <use xlink:href="#DejaVuSans-30" x="63.623047"/>
       <use xlink:href="#DejaVuSans-30" x="127.246094"/>
      </g>
     </g>
    </g>
    <g id="xtick_14">
     <g id="line2d_41">
      <path d="M 444.531883 411.367687 
L 444.531883 234.967687 
" clip-path="url(#pa6018c57c0)" style="fill: none; stroke: #b0b0b0; stroke-opacity: 0.18; stroke-width: 0.8; stroke-linecap: square"/>
     </g>
     <g id="line2d_42">
      <g>
       <use xlink:href="#m343adb76a4" x="444.531883" y="411.367687" style="stroke: #000000; stroke-width: 0.8"/>
      </g>
     </g>
     <g id="text_14">
      <!-- 1000 -->
      <g transform="translate(430.534383 426.725969) scale(0.11 -0.11)">
       <use xlink:href="#DejaVuSans-31"/>
       <use xlink:href="#DejaVuSans-30" x="63.623047"/>
       <use xlink:href="#DejaVuSans-30" x="127.246094"/>
       <use xlink:href="#DejaVuSans-30" x="190.869141"/>
      </g>
     </g>
    </g>
    <g id="xtick_15">
     <g id="line2d_43">
      <path d="M 517.004592 411.367687 
L 517.004592 234.967687 
" clip-path="url(#pa6018c57c0)" style="fill: none; stroke: #b0b0b0; stroke-opacity: 0.18; stroke-width: 0.8; stroke-linecap: square"/>
     </g>
     <g id="line2d_44">
      <g>
       <use xlink:href="#m343adb76a4" x="517.004592" y="411.367687" style="stroke: #000000; stroke-width: 0.8"/>
      </g>
     </g>
     <g id="text_15">
      <!-- 1200 -->
      <g transform="translate(503.007092 426.725969) scale(0.11 -0.11)">
       <use xlink:href="#DejaVuSans-31"/>
       <use xlink:href="#DejaVuSans-32" x="63.623047"/>
       <use xlink:href="#DejaVuSans-30" x="127.246094"/>
       <use xlink:href="#DejaVuSans-30" x="190.869141"/>
      </g>
     </g>
    </g>
    <g id="xtick_16">
     <g id="line2d_45">
      <path d="M 589.477301 411.367687 
L 589.477301 234.967687 
" clip-path="url(#pa6018c57c0)" style="fill: none; stroke: #b0b0b0; stroke-opacity: 0.18; stroke-width: 0.8; stroke-linecap: square"/>
     </g>
     <g id="line2d_46">
      <g>
       <use xlink:href="#m343adb76a4" x="589.477301" y="411.367687" style="stroke: #000000; stroke-width: 0.8"/>
      </g>
     </g>
     <g id="text_16">
      <!-- 1400 -->
      <g transform="translate(575.479801 426.725969) scale(0.11 -0.11)">
       <use xlink:href="#DejaVuSans-31"/>
       <use xlink:href="#DejaVuSans-34" x="63.623047"/>
       <use xlink:href="#DejaVuSans-30" x="127.246094"/>
       <use xlink:href="#DejaVuSans-30" x="190.869141"/>
      </g>
     </g>
    </g>
    <g id="text_17">
     <!-- Time (s); setpoint 60 C to 30 C at 400 s -->
     <g transform="translate(227.372344 441.371906) scale(0.11 -0.11)">
      <defs>
       <path id="DejaVuSans-3b" d="M 750 3309 
L 1409 3309 
L 1409 2516 
L 750 2516 
L 750 3309 
z
M 750 794 
L 1409 794 
L 1409 256 
L 897 -744 
L 494 -744 
L 750 256 
L 750 794 
z
" transform="scale(0.015625)"/>
      </defs>
      <use xlink:href="#DejaVuSans-54"/>
      <use xlink:href="#DejaVuSans-69" x="57.958984"/>
      <use xlink:href="#DejaVuSans-6d" x="85.742188"/>
      <use xlink:href="#DejaVuSans-65" x="183.154297"/>
      <use xlink:href="#DejaVuSans-20" x="244.677734"/>
      <use xlink:href="#DejaVuSans-28" x="276.464844"/>
      <use xlink:href="#DejaVuSans-73" x="315.478516"/>
      <use xlink:href="#DejaVuSans-29" x="367.578125"/>
      <use xlink:href="#DejaVuSans-3b" x="406.591797"/>
      <use xlink:href="#DejaVuSans-20" x="440.283203"/>
      <use xlink:href="#DejaVuSans-73" x="472.070312"/>
      <use xlink:href="#DejaVuSans-65" x="524.169922"/>
      <use xlink:href="#DejaVuSans-74" x="585.693359"/>
      <use xlink:href="#DejaVuSans-70" x="624.902344"/>
      <use xlink:href="#DejaVuSans-6f" x="688.378906"/>
      <use xlink:href="#DejaVuSans-69" x="749.560547"/>
      <use xlink:href="#DejaVuSans-6e" x="777.34375"/>
      <use xlink:href="#DejaVuSans-74" x="840.722656"/>
      <use xlink:href="#DejaVuSans-20" x="879.931641"/>
      <use xlink:href="#DejaVuSans-36" x="911.71875"/>
      <use xlink:href="#DejaVuSans-30" x="975.341797"/>
      <use xlink:href="#DejaVuSans-20" x="1038.964844"/>
      <use xlink:href="#DejaVuSans-43" x="1070.751953"/>
      <use xlink:href="#DejaVuSans-20" x="1140.576172"/>
      <use xlink:href="#DejaVuSans-74" x="1172.363281"/>
      <use xlink:href="#DejaVuSans-6f" x="1211.572266"/>
      <use xlink:href="#DejaVuSans-20" x="1272.753906"/>
      <use xlink:href="#DejaVuSans-33" x="1304.541016"/>
      <use xlink:href="#DejaVuSans-30" x="1368.164062"/>
      <use xlink:href="#DejaVuSans-20" x="1431.787109"/>
      <use xlink:href="#DejaVuSans-43" x="1463.574219"/>
      <use xlink:href="#DejaVuSans-20" x="1533.398438"/>
      <use xlink:href="#DejaVuSans-61" x="1565.185547"/>
      <use xlink:href="#DejaVuSans-74" x="1626.464844"/>
      <use xlink:href="#DejaVuSans-20" x="1665.673828"/>
      <use xlink:href="#DejaVuSans-34" x="1697.460938"/>
      <use xlink:href="#DejaVuSans-30" x="1761.083984"/>
      <use xlink:href="#DejaVuSans-30" x="1824.707031"/>
      <use xlink:href="#DejaVuSans-20" x="1888.330078"/>
      <use xlink:href="#DejaVuSans-73" x="1920.117188"/>
     </g>
    </g>
   </g>
   <g id="matplotlib.axis_4">
    <g id="ytick_5">
     <g id="line2d_47">
      <path d="M 56.840938 403.326556 
L 614.840937 403.326556 
" clip-path="url(#pa6018c57c0)" style="fill: none; stroke: #b0b0b0; stroke-opacity: 0.18; stroke-width: 0.8; stroke-linecap: square"/>
     </g>
     <g id="line2d_48">
      <g>
       <use xlink:href="#m1fdeaf9aad" x="56.840938" y="403.326556" style="stroke: #000000; stroke-width: 0.8"/>
      </g>
     </g>
     <g id="text_18">
      <!-- 0 -->
      <g transform="translate(42.842188 407.505696) scale(0.11 -0.11)">
       <use xlink:href="#DejaVuSans-30"/>
      </g>
     </g>
    </g>
    <g id="ytick_6">
     <g id="line2d_49">
      <path d="M 56.840938 370.716823 
L 614.840937 370.716823 
" clip-path="url(#pa6018c57c0)" style="fill: none; stroke: #b0b0b0; stroke-opacity: 0.18; stroke-width: 0.8; stroke-linecap: square"/>
     </g>
     <g id="line2d_50">
      <g>
       <use xlink:href="#m1fdeaf9aad" x="56.840938" y="370.716823" style="stroke: #000000; stroke-width: 0.8"/>
      </g>
     </g>
     <g id="text_19">
      <!-- 200 -->
      <g transform="translate(28.844688 374.895963) scale(0.11 -0.11)">
       <use xlink:href="#DejaVuSans-32"/>
       <use xlink:href="#DejaVuSans-30" x="63.623047"/>
       <use xlink:href="#DejaVuSans-30" x="127.246094"/>
      </g>
     </g>
    </g>
    <g id="ytick_7">
     <g id="line2d_51">
      <path d="M 56.840938 338.10709 
L 614.840937 338.10709 
" clip-path="url(#pa6018c57c0)" style="fill: none; stroke: #b0b0b0; stroke-opacity: 0.18; stroke-width: 0.8; stroke-linecap: square"/>
     </g>
     <g id="line2d_52">
      <g>
       <use xlink:href="#m1fdeaf9aad" x="56.840938" y="338.10709" style="stroke: #000000; stroke-width: 0.8"/>
      </g>
     </g>
     <g id="text_20">
      <!-- 400 -->
      <g transform="translate(28.844688 342.286231) scale(0.11 -0.11)">
       <use xlink:href="#DejaVuSans-34"/>
       <use xlink:href="#DejaVuSans-30" x="63.623047"/>
       <use xlink:href="#DejaVuSans-30" x="127.246094"/>
      </g>
     </g>
    </g>
    <g id="ytick_8">
     <g id="line2d_53">
      <path d="M 56.840938 305.497357 
L 614.840937 305.497357 
" clip-path="url(#pa6018c57c0)" style="fill: none; stroke: #b0b0b0; stroke-opacity: 0.18; stroke-width: 0.8; stroke-linecap: square"/>
     </g>
     <g id="line2d_54">
      <g>
       <use xlink:href="#m1fdeaf9aad" x="56.840938" y="305.497357" style="stroke: #000000; stroke-width: 0.8"/>
      </g>
     </g>
     <g id="text_21">
      <!-- 600 -->
      <g transform="translate(28.844688 309.676498) scale(0.11 -0.11)">
       <use xlink:href="#DejaVuSans-36"/>
       <use xlink:href="#DejaVuSans-30" x="63.623047"/>
       <use xlink:href="#DejaVuSans-30" x="127.246094"/>
      </g>
     </g>
    </g>
    <g id="ytick_9">
     <g id="line2d_55">
      <path d="M 56.840938 272.887624 
L 614.840937 272.887624 
" clip-path="url(#pa6018c57c0)" style="fill: none; stroke: #b0b0b0; stroke-opacity: 0.18; stroke-width: 0.8; stroke-linecap: square"/>
     </g>
     <g id="line2d_56">
      <g>
       <use xlink:href="#m1fdeaf9aad" x="56.840938" y="272.887624" style="stroke: #000000; stroke-width: 0.8"/>
      </g>
     </g>
     <g id="text_22">
      <!-- 800 -->
      <g transform="translate(28.844688 277.066765) scale(0.11 -0.11)">
       <use xlink:href="#DejaVuSans-38"/>
       <use xlink:href="#DejaVuSans-30" x="63.623047"/>
       <use xlink:href="#DejaVuSans-30" x="127.246094"/>
      </g>
     </g>
    </g>
    <g id="ytick_10">
     <g id="line2d_57">
      <path d="M 56.840938 240.277892 
L 614.840937 240.277892 
" clip-path="url(#pa6018c57c0)" style="fill: none; stroke: #b0b0b0; stroke-opacity: 0.18; stroke-width: 0.8; stroke-linecap: square"/>
     </g>
     <g id="line2d_58">
      <g>
       <use xlink:href="#m1fdeaf9aad" x="56.840938" y="240.277892" style="stroke: #000000; stroke-width: 0.8"/>
      </g>
     </g>
     <g id="text_23">
      <!-- 1000 -->
      <g transform="translate(21.845938 244.457032) scale(0.11 -0.11)">
       <use xlink:href="#DejaVuSans-31"/>
       <use xlink:href="#DejaVuSans-30" x="63.623047"/>
       <use xlink:href="#DejaVuSans-30" x="127.246094"/>
       <use xlink:href="#DejaVuSans-30" x="190.869141"/>
      </g>
     </g>
    </g>
    <g id="text_24">
     <!-- Integral contribution (PWM counts) -->
     <g transform="translate(15.558281 419.217453) rotate(-90) scale(0.11 -0.11)">
      <defs>
       <path id="DejaVuSans-49" d="M 628 4666 
L 1259 4666 
L 1259 0 
L 628 0 
L 628 4666 
z
" transform="scale(0.015625)"/>
       <path id="DejaVuSans-67" d="M 2906 1791 
Q 2906 2416 2648 2759 
Q 2391 3103 1925 3103 
Q 1463 3103 1205 2759 
Q 947 2416 947 1791 
Q 947 1169 1205 825 
Q 1463 481 1925 481 
Q 2391 481 2648 825 
Q 2906 1169 2906 1791 
z
M 3481 434 
Q 3481 -459 3084 -895 
Q 2688 -1331 1869 -1331 
Q 1566 -1331 1297 -1286 
Q 1028 -1241 775 -1147 
L 775 -588 
Q 1028 -725 1275 -790 
Q 1522 -856 1778 -856 
Q 2344 -856 2625 -561 
Q 2906 -266 2906 331 
L 2906 616 
Q 2728 306 2450 153 
Q 2172 0 1784 0 
Q 1141 0 747 490 
Q 353 981 353 1791 
Q 353 2603 747 3093 
Q 1141 3584 1784 3584 
Q 2172 3584 2450 3431 
Q 2728 3278 2906 2969 
L 2906 3500 
L 3481 3500 
L 3481 434 
z
" transform="scale(0.015625)"/>
       <path id="DejaVuSans-63" d="M 3122 3366 
L 3122 2828 
Q 2878 2963 2633 3030 
Q 2388 3097 2138 3097 
Q 1578 3097 1268 2742 
Q 959 2388 959 1747 
Q 959 1106 1268 751 
Q 1578 397 2138 397 
Q 2388 397 2633 464 
Q 2878 531 3122 666 
L 3122 134 
Q 2881 22 2623 -34 
Q 2366 -91 2075 -91 
Q 1284 -91 818 406 
Q 353 903 353 1747 
Q 353 2603 823 3093 
Q 1294 3584 2113 3584 
Q 2378 3584 2631 3529 
Q 2884 3475 3122 3366 
z
" transform="scale(0.015625)"/>
       <path id="DejaVuSans-62" d="M 3116 1747 
Q 3116 2381 2855 2742 
Q 2594 3103 2138 3103 
Q 1681 3103 1420 2742 
Q 1159 2381 1159 1747 
Q 1159 1113 1420 752 
Q 1681 391 2138 391 
Q 2594 391 2855 752 
Q 3116 1113 3116 1747 
z
M 1159 2969 
Q 1341 3281 1617 3432 
Q 1894 3584 2278 3584 
Q 2916 3584 3314 3078 
Q 3713 2572 3713 1747 
Q 3713 922 3314 415 
Q 2916 -91 2278 -91 
Q 1894 -91 1617 61 
Q 1341 213 1159 525 
L 1159 0 
L 581 0 
L 581 4863 
L 1159 4863 
L 1159 2969 
z
" transform="scale(0.015625)"/>
      </defs>
      <use xlink:href="#DejaVuSans-49"/>
      <use xlink:href="#DejaVuSans-6e" x="29.492188"/>
      <use xlink:href="#DejaVuSans-74" x="92.871094"/>
      <use xlink:href="#DejaVuSans-65" x="132.080078"/>
      <use xlink:href="#DejaVuSans-67" x="193.603516"/>
      <use xlink:href="#DejaVuSans-72" x="257.080078"/>
      <use xlink:href="#DejaVuSans-61" x="298.193359"/>
      <use xlink:href="#DejaVuSans-6c" x="359.472656"/>
      <use xlink:href="#DejaVuSans-20" x="387.255859"/>
      <use xlink:href="#DejaVuSans-63" x="419.042969"/>
      <use xlink:href="#DejaVuSans-6f" x="474.023438"/>
      <use xlink:href="#DejaVuSans-6e" x="535.205078"/>
      <use xlink:href="#DejaVuSans-74" x="598.583984"/>
      <use xlink:href="#DejaVuSans-72" x="637.792969"/>
      <use xlink:href="#DejaVuSans-69" x="678.90625"/>
      <use xlink:href="#DejaVuSans-62" x="706.689453"/>
      <use xlink:href="#DejaVuSans-75" x="770.166016"/>
      <use xlink:href="#DejaVuSans-74" x="833.544922"/>
      <use xlink:href="#DejaVuSans-69" x="872.753906"/>
      <use xlink:href="#DejaVuSans-6f" x="900.537109"/>
      <use xlink:href="#DejaVuSans-6e" x="961.71875"/>
      <use xlink:href="#DejaVuSans-20" x="1025.097656"/>
      <use xlink:href="#DejaVuSans-28" x="1056.884766"/>
      <use xlink:href="#DejaVuSans-50" x="1095.898438"/>
      <use xlink:href="#DejaVuSans-57" x="1156.201172"/>
      <use xlink:href="#DejaVuSans-4d" x="1255.078125"/>
      <use xlink:href="#DejaVuSans-20" x="1341.357422"/>
      <use xlink:href="#DejaVuSans-63" x="1373.144531"/>
      <use xlink:href="#DejaVuSans-6f" x="1428.125"/>
      <use xlink:href="#DejaVuSans-75" x="1489.306641"/>
      <use xlink:href="#DejaVuSans-6e" x="1552.685547"/>
      <use xlink:href="#DejaVuSans-74" x="1616.064453"/>
      <use xlink:href="#DejaVuSans-73" x="1655.273438"/>
      <use xlink:href="#DejaVuSans-29" x="1707.373047"/>
     </g>
    </g>
   </g>
   <g id="line2d_59">
    <path d="M 82.204574 403.326556 
L 235.049517 403.216106 
L 242.296788 402.794499 
L 265.524292 401.300515 
L 271.285872 401.16015 
L 278.243252 401.049181 
L 290.599849 400.932037 
L 310.276189 400.975107 
L 356.69496 401.101418 
L 589.477301 401.084917 
L 589.477301 401.084917 
" clip-path="url(#pa6018c57c0)" style="fill: none; stroke: #245a81; stroke-width: 1.5; stroke-linecap: square"/>
   </g>
   <g id="line2d_60">
    <path d="M 82.204574 403.278539 
L 88.473463 395.156653 
L 95.46708 386.464263 
L 103.402841 376.961648 
L 112.606875 366.295479 
L 123.586491 353.922832 
L 137.21136 338.918246 
L 155.184592 319.474602 
L 181.492185 291.370233 
L 227.113756 242.985869 
L 353.071324 245.768462 
L 589.477301 251.045635 
L 589.477301 251.045635 
" clip-path="url(#pa6018c57c0)" style="fill: none; stroke-dasharray: 5.55,2.4; stroke-dashoffset: 0; stroke: #b45b22; stroke-width: 1.5"/>
   </g>
   <g id="line2d_61">
    <path d="M 227.113756 411.367687 
L 227.113756 234.967687 
" clip-path="url(#pa6018c57c0)" style="fill: none; stroke-dasharray: 1.5,2.475; stroke-dashoffset: 0; stroke: #927919; stroke-width: 1.5"/>
   </g>
   <g id="patch_7">
    <path d="M 56.840938 411.367687 
L 56.840938 234.967687 
" style="fill: none; stroke: #000000; stroke-width: 0.8; stroke-linejoin: miter; stroke-linecap: square"/>
   </g>
   <g id="patch_8">
    <path d="M 56.840938 411.367687 
L 614.840937 411.367687 
" style="fill: none; stroke: #000000; stroke-width: 0.8; stroke-linejoin: miter; stroke-linecap: square"/>
   </g>
  </g>
 </g>
 <defs>
  <clipPath id="p3f206cf986">
   <rect x="56.840938" y="23.287688" width="558" height="176.4"/>
  </clipPath>
  <clipPath id="pa6018c57c0">
   <rect x="56.840938" y="234.967687" width="558" height="176.4"/>
  </clipPath>
 </defs>
</svg>
