<svg xmlns="http://www.w3.org/2000/svg" width="920" height="430" viewBox="0 0 920 430">
<rect width="920" height="430" fill="#fff"/>
<text x="460.0" y="26" text-anchor="middle" font-family="Arial" font-size="16" fill="#202830">P-only strip chart, Kp = 4 PWM/°C, setpoint 30 °C (final 27.73 °C)</text>
<line x1="349.5" y1="56" x2="349.5" y2="374" stroke="#e3e8ee"/>
<text x="349.5" y="396" text-anchor="middle" font-family="Arial" font-size="11" fill="#4b5563">100</text>
<line x1="630.6" y1="56" x2="630.6" y2="374" stroke="#e3e8ee"/>
<text x="630.6" y="396" text-anchor="middle" font-family="Arial" font-size="11" fill="#4b5563">200</text>
<text x="460.0" y="420" text-anchor="middle" font-family="Arial" font-size="12" fill="#202830">Arduino time (s)</text>
<line x1="70" y1="291.2" x2="850" y2="291.2" stroke="#e3e8ee"/>
<text x="62" y="295.2" text-anchor="end" font-family="Arial" font-size="11" fill="#235f9e">26</text>
<line x1="70" y1="197.1" x2="850" y2="197.1" stroke="#e3e8ee"/>
<text x="62" y="201.1" text-anchor="end" font-family="Arial" font-size="11" fill="#235f9e">28</text>
<line x1="70" y1="103.0" x2="850" y2="103.0" stroke="#e3e8ee"/>
<text x="62" y="107.0" text-anchor="end" font-family="Arial" font-size="11" fill="#235f9e">30</text>
<text x="16" y="215.0" text-anchor="middle" font-family="Arial" font-size="12" fill="#235f9e" transform="rotate(-90 16 215.0)">Temperature (°C)</text>
<text x="858" y="378.0" font-family="Arial" font-size="11" fill="#c62828">0</text>
<text x="858" y="298.5" font-family="Arial" font-size="11" fill="#c62828">5</text>
<text x="858" y="219.0" font-family="Arial" font-size="11" fill="#c62828">10</text>
<text x="858" y="139.5" font-family="Arial" font-size="11" fill="#c62828">15</text>
<text x="858" y="60.0" font-family="Arial" font-size="11" fill="#c62828">20</text>
<text x="906" y="215.0" text-anchor="middle" font-family="Arial" font-size="12" fill="#c62828" transform="rotate(90 906 215.0)">PWM</text>
<rect x="70" y="56" width="780" height="318" fill="none" stroke="#46505b"/>
<line x1="70" y1="103.0" x2="850" y2="103.0" stroke="#c57425" stroke-width="2" stroke-dasharray="7,5"/>
<polyline points="70.0,374.0 71.4,374.0 72.8,374.0 74.3,374.0 75.7,374.0 77.1,374.0 78.5,374.0 80.0,374.0 81.4,374.0 82.8,374.0 84.2,71.9 85.6,71.9 87.1,71.9 88.5,71.9 89.9,71.9 91.3,87.8 92.7,87.8 94.2,87.8 95.6,87.8 97.0,103.7 98.4,103.7 99.9,103.7 101.3,103.7 102.7,119.6 104.2,119.6 105.6,119.6 107.0,119.6 108.5,119.6 109.9,135.5 111.3,135.5 112.8,135.5 114.2,135.5 115.6,135.5 117.0,135.5 118.5,151.4 119.9,151.4 121.3,151.4 122.7,151.4 124.2,151.4 125.6,151.4 127.0,151.4 128.5,151.4 129.9,151.4 131.3,167.3 132.7,167.3 134.2,167.3 135.6,167.3 137.0,167.3 138.5,167.3 139.9,167.3 141.3,167.3 142.7,167.3 144.2,167.3 145.6,167.3 147.0,167.3 148.4,183.2 149.9,183.2 151.3,183.2 152.8,183.2 154.2,183.2 155.6,183.2 157.0,183.2 158.5,183.2 159.9,183.2 161.3,183.2 162.8,183.2 164.2,183.2 165.6,183.2 167.0,183.2 168.5,183.2 169.9,183.2 171.3,183.2 172.8,183.2 174.2,199.1 175.6,199.1 177.0,199.1 178.5,199.1 179.9,199.1 181.3,199.1 182.7,199.1 184.2,199.1 185.6,199.1 187.0,199.1 188.5,199.1 189.9,199.1 191.3,199.1 192.7,199.1 194.2,199.1 195.6,199.1 197.0,199.1 198.5,199.1 199.9,199.1 201.3,199.1 202.8,199.1 204.2,199.1 205.6,199.1 207.0,199.1 208.5,199.1 209.9,215.0 211.3,215.0 212.8,215.0 214.2,215.0 215.6,215.0 217.0,215.0 218.5,215.0 219.9,215.0 221.3,215.0 222.7,215.0 224.2,215.0 225.6,215.0 227.0,215.0 228.5,215.0 229.9,215.0 231.3,215.0 232.7,215.0 234.2,215.0 235.6,215.0 237.0,215.0 238.5,215.0 239.9,215.0 241.3,215.0 242.8,215.0 244.2,215.0 245.6,215.0 247.0,215.0 248.5,215.0 249.9,215.0 251.3,215.0 252.8,215.0 254.2,215.0 255.6,215.0 257.0,215.0 258.5,215.0 259.9,215.0 261.3,215.0 262.8,215.0 264.2,215.0 265.6,215.0 267.0,215.0 268.5,215.0 269.9,215.0 271.3,215.0 272.7,215.0 274.2,215.0 275.6,215.0 277.0,230.9 278.4,230.9 279.9,230.9 281.3,230.9 282.7,230.9 284.2,230.9 285.6,230.9 287.0,230.9 288.4,230.9 289.8,230.9 291.3,230.9 292.7,230.9 294.1,230.9 295.5,230.9 296.9,230.9 298.4,230.9 299.8,230.9 301.2,230.9 302.7,230.9 304.1,230.9 305.5,230.9 306.9,230.9 308.3,230.9 309.8,230.9 311.2,230.9 312.6,230.9 314.0,230.9 315.4,230.9 316.9,230.9 318.3,230.9 319.7,230.9 321.1,230.9 322.6,230.9 324.0,230.9 325.4,230.9 326.8,230.9 328.3,230.9 329.7,230.9 331.1,230.9 332.5,230.9 333.9,230.9 335.4,230.9 336.8,230.9 338.2,230.9 339.6,230.9 341.1,230.9 342.5,230.9 343.9,230.9 345.3,230.9 346.8,230.9 348.2,230.9 349.6,230.9 351.0,230.9 352.5,230.9 353.9,230.9 355.3,230.9 356.7,230.9 358.2,230.9 359.6,230.9 361.0,230.9 362.4,230.9 363.9,230.9 365.3,230.9 366.7,230.9 368.1,230.9 369.5,230.9 371.0,230.9 372.4,230.9 373.8,230.9 375.3,230.9 376.7,230.9 378.1,230.9 379.5,230.9 381.0,230.9 382.4,230.9 383.8,230.9 385.2,230.9 386.7,230.9 388.1,230.9 389.5,230.9 390.9,230.9 392.4,230.9 393.8,230.9 395.2,230.9 396.6,230.9 398.1,230.9 399.5,230.9 400.9,230.9 402.4,230.9 403.8,230.9 405.2,230.9 406.6,230.9 408.1,230.9 409.5,230.9 410.9,230.9 412.3,230.9 413.8,230.9 415.2,230.9 416.6,230.9 418.0,230.9 419.5,230.9 420.9,230.9 422.3,230.9 423.7,230.9 425.1,230.9 426.6,230.9 428.0,230.9 429.4,230.9 430.9,230.9 432.3,230.9 433.7,230.9 435.2,230.9 436.6,230.9 438.0,230.9 439.4,230.9 440.8,230.9 442.3,230.9 443.7,230.9 445.1,230.9 446.5,230.9 448.0,230.9 449.4,230.9 450.8,230.9 452.2,230.9 453.7,230.9 455.1,230.9 456.5,230.9 457.9,230.9 459.4,230.9 460.8,230.9 462.2,230.9 463.7,230.9 465.1,230.9 466.5,230.9 467.9,230.9 469.4,230.9 470.8,230.9 472.2,230.9 473.6,230.9 475.1,230.9 476.5,230.9 477.9,230.9 479.3,230.9 480.8,230.9 482.2,230.9 483.6,230.9 485.0,230.9 486.4,230.9 487.9,230.9 489.3,230.9 490.8,230.9 492.2,230.9 493.6,230.9 495.0,230.9 496.4,230.9 497.9,230.9 499.3,230.9 500.7,230.9 502.1,230.9 503.6,230.9 505.0,230.9 506.4,230.9 507.8,230.9 509.3,230.9 510.7,230.9 512.1,230.9 513.5,230.9 515.0,230.9 516.4,230.9 517.8,230.9 519.3,230.9 520.7,230.9 522.1,230.9 523.5,230.9 525.0,230.9 526.4,230.9 527.8,230.9 529.2,230.9 530.7,230.9 532.1,230.9 533.5,230.9 534.9,230.9 536.4,230.9 537.8,230.9 539.2,230.9 540.6,230.9 542.1,230.9 543.5,230.9 544.9,230.9 546.3,230.9 547.8,230.9 549.2,230.9 550.6,230.9 552.0,230.9 553.5,230.9 554.9,230.9 556.3,230.9 557.8,230.9 559.2,230.9 560.6,230.9 562.0,230.9 563.4,230.9 564.9,230.9 566.3,230.9 567.7,230.9 569.1,230.9 570.6,230.9 572.0,230.9 573.4,230.9 574.8,230.9 576.3,230.9 577.7,230.9 579.1,230.9 580.6,230.9 582.0,230.9 583.4,230.9 584.8,230.9 586.3,230.9 587.7,230.9 589.1,230.9 590.5,230.9 592.0,230.9 593.4,230.9 594.8,230.9 596.2,230.9 597.7,230.9 599.1,230.9 600.5,230.9 601.9,230.9 603.4,230.9 604.8,230.9 606.2,230.9 607.7,230.9 609.1,230.9 610.5,230.9 611.9,230.9 613.4,230.9 614.8,230.9 616.2,230.9 617.6,230.9 619.0,230.9 620.5,230.9 621.9,230.9 623.3,230.9 624.7,230.9 626.2,230.9 627.6,230.9 629.0,230.9 630.4,230.9 631.9,230.9 633.3,230.9 634.7,230.9 636.2,230.9 637.6,230.9 639.0,230.9 640.4,230.9 641.9,230.9 643.3,230.9 644.7,230.9 646.1,230.9 647.6,230.9 649.0,230.9 650.4,230.9 651.8,230.9 653.3,230.9 654.7,230.9 656.1,230.9 657.5,230.9 659.0,230.9 660.4,230.9 661.8,230.9 663.2,230.9 664.7,230.9 666.1,230.9 667.5,230.9 669.0,230.9 670.4,230.9 671.8,230.9 673.2,230.9 674.7,230.9 676.1,230.9 677.5,230.9 678.9,230.9 680.3,230.9 681.8,230.9 683.2,230.9 684.6,230.9 686.0,230.9 687.5,230.9 688.9,230.9 690.3,230.9 691.8,230.9 693.2,230.9 694.6,230.9 696.0,230.9 697.5,230.9 698.9,230.9 700.3,230.9 701.7,230.9 703.2,230.9 704.6,230.9 706.0,230.9 707.4,230.9 708.9,230.9 710.3,230.9 711.7,230.9 713.1,230.9 714.6,230.9 716.0,230.9 717.4,230.9 718.8,230.9 720.3,230.9 721.7,230.9 723.1,230.9 724.6,230.9 726.0,230.9 727.4,230.9 728.8,230.9 730.3,230.9 731.7,230.9 733.1,230.9 734.5,230.9 736.0,230.9 737.4,230.9 738.8,230.9 740.2,230.9 741.6,230.9 743.1,230.9 744.5,230.9 745.9,230.9 747.3,230.9 748.8,230.9 750.2,230.9 751.6,230.9 753.1,230.9 754.5,230.9 755.9,230.9 757.3,230.9 758.8,230.9 760.2,230.9 761.6,230.9 763.0,230.9 764.5,230.9 765.9,230.9 767.3,230.9 768.7,230.9 770.2,230.9 771.6,230.9 773.0,230.9 774.4,230.9 775.9,230.9 777.3,230.9 778.7,230.9 780.2,230.9 781.6,230.9 783.0,230.9 784.4,230.9 785.9,230.9 787.3,230.9 788.7,230.9 790.1,230.9 791.6,230.9 793.0,230.9 794.4,230.9 795.8,230.9 797.2,230.9 798.7,230.9 800.1,230.9 801.5,230.9 802.9,230.9 804.4,230.9 805.8,230.9 807.2,230.9 808.7,230.9 810.1,230.9 811.5,230.9 812.9,230.9 814.4,230.9 815.8,230.9 817.2,230.9 818.6,230.9 820.1,230.9 821.5,230.9 822.9,230.9 824.3,230.9 825.8,230.9 827.2,230.9 828.6,230.9 830.0,230.9 831.5,230.9 832.9,230.9 834.3,230.9 835.7,230.9 837.2,230.9 838.6,230.9 840.0,230.9 841.5,230.9 842.9,230.9 844.3,230.9 845.7,230.9 847.2,230.9 848.6,230.9 850.0,230.9" fill="none" stroke="#c62828" stroke-width="1.6"/>
<polyline points="70.0,320.4 71.4,320.8 72.8,321.8 74.3,322.3 75.7,323.2 77.1,323.7 78.5,324.1 80.0,325.1 81.4,325.5 82.8,326.0 84.2,327.0 85.6,326.5 87.1,325.5 88.5,323.2 89.9,319.9 91.3,317.1 92.7,313.8 94.2,310.5 95.6,307.2 97.0,303.4 98.4,300.6 99.9,297.8 101.3,295.0 102.7,293.1 104.2,290.3 105.6,287.4 107.0,285.6 108.5,283.7 109.9,281.3 111.3,279.4 112.8,277.6 114.2,275.7 115.6,274.7 117.0,272.4 118.5,271.4 119.9,270.0 121.3,269.1 122.7,266.7 124.2,265.8 125.6,264.9 127.0,263.5 128.5,262.0 129.9,261.1 131.3,260.2 132.7,258.7 134.2,257.8 135.6,256.4 137.0,255.9 138.5,255.0 139.9,254.0 141.3,253.1 142.7,252.2 144.2,250.8 145.6,250.3 147.0,249.3 148.4,248.9 149.9,247.9 151.3,247.0 152.8,246.0 154.2,245.6 155.6,245.1 157.0,244.2 158.5,244.2 159.9,243.2 161.3,242.8 162.8,241.8 164.2,241.3 165.6,240.9 167.0,240.4 168.5,239.9 169.9,239.5 171.3,238.5 172.8,237.6 174.2,236.6 175.6,236.2 177.0,235.7 178.5,235.2 179.9,235.2 181.3,234.8 182.7,234.3 184.2,233.8 185.6,233.3 187.0,232.9 188.5,232.4 189.9,232.4 191.3,231.5 192.7,231.5 194.2,231.0 195.6,230.5 197.0,230.1 198.5,229.6 199.9,229.6 201.3,228.6 202.8,228.2 204.2,227.7 205.6,227.2 207.0,226.8 208.5,226.3 209.9,225.8 211.3,225.3 212.8,225.3 214.2,224.4 215.6,224.4 217.0,224.4 218.5,224.4 219.9,223.9 221.3,223.9 222.7,223.5 224.2,223.0 225.6,223.0 227.0,223.0 228.5,222.5 229.9,222.1 231.3,222.5 232.7,221.6 234.2,221.6 235.6,221.6 237.0,221.6 238.5,220.6 239.9,221.1 241.3,220.6 242.8,219.7 244.2,219.7 245.6,219.7 247.0,219.2 248.5,219.2 249.9,218.8 251.3,218.8 252.8,218.3 254.2,217.8 255.6,217.8 257.0,217.8 258.5,217.4 259.9,216.9 261.3,216.9 262.8,215.9 264.2,215.9 265.6,215.9 267.0,215.9 268.5,215.5 269.9,215.5 271.3,215.0 272.7,215.0 274.2,215.0 275.6,214.5 277.0,214.1 278.4,213.6 279.9,214.1 281.3,213.6 282.7,213.6 284.2,214.1 285.6,213.6 287.0,213.6 288.4,213.1 289.8,213.6 291.3,213.6 292.7,213.6 294.1,213.6 295.5,213.6 296.9,213.1 298.4,213.6 299.8,213.6 301.2,213.6 302.7,213.6 304.1,213.1 305.5,213.6 306.9,213.1 308.3,213.1 309.8,213.1 311.2,212.6 312.6,213.1 314.0,213.1 315.4,212.6 316.9,213.1 318.3,212.6 319.7,212.6 321.1,212.6 322.6,212.6 324.0,212.6 325.4,212.6 326.8,212.6 328.3,212.6 329.7,212.2 331.1,212.6 332.5,212.2 333.9,212.2 335.4,212.2 336.8,212.6 338.2,212.2 339.6,212.2 341.1,212.2 342.5,211.7 343.9,211.7 345.3,212.2 346.8,211.7 348.2,211.7 349.6,211.7 351.0,211.7 352.5,211.7 353.9,211.2 355.3,211.2 356.7,211.2 358.2,211.2 359.6,211.2 361.0,211.2 362.4,211.7 363.9,210.8 365.3,211.2 366.7,210.8 368.1,211.2 369.5,210.8 371.0,210.8 372.4,211.2 373.8,211.2 375.3,210.8 376.7,210.3 378.1,210.8 379.5,210.8 381.0,210.8 382.4,210.8 383.8,210.3 385.2,210.3 386.7,210.3 388.1,209.8 389.5,209.8 390.9,209.8 392.4,210.3 393.8,209.8 395.2,209.8 396.6,209.8 398.1,210.3 399.5,209.8 400.9,209.8 402.4,210.3 403.8,209.8 405.2,209.8 406.6,209.4 408.1,209.8 409.5,209.8 410.9,209.8 412.3,209.8 413.8,209.8 415.2,209.8 416.6,209.8 418.0,209.8 419.5,209.8 420.9,209.8 422.3,209.8 423.7,209.8 425.1,209.8 426.6,209.8 428.0,209.8 429.4,209.8 430.9,209.8 432.3,209.8 433.7,209.8 435.2,209.8 436.6,209.8 438.0,209.8 439.4,209.8 440.8,209.8 442.3,209.8 443.7,209.8 445.1,209.8 446.5,209.8 448.0,209.8 449.4,209.8 450.8,209.8 452.2,209.8 453.7,209.8 455.1,209.8 456.5,209.8 457.9,209.8 459.4,209.8 460.8,209.8 462.2,209.8 463.7,209.8 465.1,209.8 466.5,209.4 467.9,209.4 469.4,209.4 470.8,209.4 472.2,209.8 473.6,209.4 475.1,209.4 476.5,209.8 477.9,209.8 479.3,209.4 480.8,209.4 482.2,209.4 483.6,209.4 485.0,209.8 486.4,209.4 487.9,209.4 489.3,209.4 490.8,209.8 492.2,209.4 493.6,209.8 495.0,209.4 496.4,209.8 497.9,209.4 499.3,209.4 500.7,209.4 502.1,209.8 503.6,209.4 505.0,209.8 506.4,209.4 507.8,209.8 509.3,209.8 510.7,209.8 512.1,209.8 513.5,209.8 515.0,209.4 516.4,209.8 517.8,209.8 519.3,209.8 520.7,209.4 522.1,209.4 523.5,209.4 525.0,209.8 526.4,209.4 527.8,209.4 529.2,209.8 530.7,209.4 532.1,209.4 533.5,209.4 534.9,209.4 536.4,209.4 537.8,209.8 539.2,209.4 540.6,209.4 542.1,209.4 543.5,209.4 544.9,209.4 546.3,209.4 547.8,209.4 549.2,208.9 550.6,209.4 552.0,208.9 553.5,209.4 554.9,208.9 556.3,208.9 557.8,208.9 559.2,209.4 560.6,209.4 562.0,209.4 563.4,208.9 564.9,209.4 566.3,208.9 567.7,208.9 569.1,208.9 570.6,209.4 572.0,208.9 573.4,208.9 574.8,209.4 576.3,208.9 577.7,209.4 579.1,208.9 580.6,209.4 582.0,208.9 583.4,208.9 584.8,209.4 586.3,208.9 587.7,209.4 589.1,209.4 590.5,208.9 592.0,209.4 593.4,208.9 594.8,208.9 596.2,209.4 597.7,208.9 599.1,208.9 600.5,208.9 601.9,209.4 603.4,209.4 604.8,208.9 606.2,208.9 607.7,208.9 609.1,208.9 610.5,208.9 611.9,208.4 613.4,208.9 614.8,208.9 616.2,208.9 617.6,208.9 619.0,208.9 620.5,208.9 621.9,208.9 623.3,208.9 624.7,208.9 626.2,208.9 627.6,208.9 629.0,208.9 630.4,209.4 631.9,208.9 633.3,208.9 634.7,209.4 636.2,208.9 637.6,208.9 639.0,208.9 640.4,208.9 641.9,208.9 643.3,208.9 644.7,208.9 646.1,208.9 647.6,208.9 649.0,208.9 650.4,208.9 651.8,208.9 653.3,208.9 654.7,208.4 656.1,208.4 657.5,208.4 659.0,208.4 660.4,208.4 661.8,208.4 663.2,208.4 664.7,208.4 666.1,207.9 667.5,208.4 669.0,208.4 670.4,207.9 671.8,208.4 673.2,208.4 674.7,208.4 676.1,208.4 677.5,207.9 678.9,207.9 680.3,208.4 681.8,208.4 683.2,208.4 684.6,208.4 686.0,207.9 687.5,208.4 688.9,207.9 690.3,207.9 691.8,207.9 693.2,207.9 694.6,208.4 696.0,208.4 697.5,207.9 698.9,207.9 700.3,208.4 701.7,207.9 703.2,207.9 704.6,208.4 706.0,207.9 707.4,208.4 708.9,207.9 710.3,208.4 711.7,207.9 713.1,207.9 714.6,208.4 716.0,207.9 717.4,207.9 718.8,208.4 720.3,208.4 721.7,207.9 723.1,208.4 724.6,207.9 726.0,208.4 727.4,208.4 728.8,207.9 730.3,208.4 731.7,208.4 733.1,207.9 734.5,208.4 736.0,208.4 737.4,208.4 738.8,207.9 740.2,208.4 741.6,208.4 743.1,207.9 744.5,208.4 745.9,207.9 747.3,208.4 748.8,207.9 750.2,208.4 751.6,207.9 753.1,208.4 754.5,208.4 755.9,208.4 757.3,208.4 758.8,208.4 760.2,208.4 761.6,208.4 763.0,207.9 764.5,208.4 765.9,207.9 767.3,208.4 768.7,208.4 770.2,207.9 771.6,208.4 773.0,208.4 774.4,208.4 775.9,208.4 777.3,208.4 778.7,207.9 780.2,208.4 781.6,208.4 783.0,207.9 784.4,208.4 785.9,208.4 787.3,208.4 788.7,208.9 790.1,208.9 791.6,208.9 793.0,208.9 794.4,208.9 795.8,208.9 797.2,208.9 798.7,208.9 800.1,208.9 801.5,209.4 802.9,209.4 804.4,208.9 805.8,208.9 807.2,209.4 808.7,208.9 810.1,209.4 811.5,208.9 812.9,209.4 814.4,209.4 815.8,209.4 817.2,209.4 818.6,209.8 820.1,209.4 821.5,209.4 822.9,209.4 824.3,209.4 825.8,209.8 827.2,209.4 828.6,209.4 830.0,209.4 831.5,209.4 832.9,209.4 834.3,209.4 835.7,209.4 837.2,209.4 838.6,209.8 840.0,209.4 841.5,209.8 842.9,209.8 844.3,209.4 845.7,209.8 847.2,209.8 848.6,209.8 850.0,209.8" fill="none" stroke="#235f9e" stroke-width="2.2"/>
<line x1="82" y1="70" x2="100" y2="70" stroke="#235f9e" stroke-width="2.2"/>
<text x="106" y="74" font-family="Arial" font-size="11" fill="#202830">Temperature</text>
<line x1="193.5" y1="70" x2="211.5" y2="70" stroke="#c57425" stroke-width="2.2"/>
<text x="217.5" y="74" font-family="Arial" font-size="11" fill="#202830">Setpoint 30 °C</text>
<line x1="324.5" y1="70" x2="342.5" y2="70" stroke="#c62828" stroke-width="2.2"/>
<text x="348.5" y="74" font-family="Arial" font-size="11" fill="#202830">PWM</text>
</svg>